<?xml version="1.0" encoding="utf-8" ?>
<svg xmlns="http://www.w3.org/2000/svg" xmlns:xlink="http://www.w3.org/1999/xlink" width="1024" height="1024">
	<path fill="white" transform="scale(2 2)" d="M387.415 143.933C359.887 138.742 359.845 98.815 388.677 94.5839C415.239 90.1542 431.516 131.879 397.301 143.933L397.301 194.976C412.443 198.569 421.767 214.664 415.572 229.317C411.946 237.895 405.48 241.48 397.301 244.841L397.323 268.831C397.336 293.724 394.663 296.888 367.247 296.876L340.777 296.868L340.769 328.95C340.772 343.867 344.772 346.802 328.681 346.416L328.692 376.059C328.691 382.335 329.358 390.03 327.937 396.079C324.754 409.629 313.019 417.337 299.421 417.379L135.525 417.381C122.737 417.384 112.453 419.187 102.558 409.24C95.3746 402.019 94.866 393.68 94.8369 384.036L94.8396 370.625L94.8261 243.186C94.8198 225.971 94.9087 206.857 117.267 202.974C122.879 201.999 129.086 202.481 134.781 202.486L267.271 202.498L267.271 161.197C250.177 157.088 240.881 137.308 251.692 122.147C265.232 103.16 293.729 111.05 296.899 133.447C309.012 133.449 321.149 133.254 333.259 133.379C358.848 133.643 349.18 159.037 355.426 165.073C358.866 168.397 365.144 167.292 369.462 167.288L387.415 167.262L387.415 143.933ZM389.757 104.306C370.192 108.198 373.597 136.971 394.529 134.213C413.635 129.99 409.324 102.596 389.757 104.306ZM271.36 121.332C250.9 123.815 253.098 152.288 273.495 151.728C293.394 148.74 291.035 120.255 271.36 121.332ZM299.642 143.135L296.899 143.135C292.116 153.164 287.767 158.161 277.04 161.197L277.04 202.498L292.853 202.48C325.577 202.477 329.314 218.36 329.296 247.271L329.29 273.681C342.965 273.605 340.637 274.646 340.777 287.051L366.64 287.063C371.487 287.062 379.916 288.264 384.205 285.68C389.119 281.261 387.439 273.209 387.436 267.204L387.415 244.841C361.248 240.748 359.781 200.087 387.415 194.976L387.415 177.251L371.489 177.269C356.857 177.277 343.314 176.305 342.817 158.004C342.476 145.44 341.521 143.179 329.305 143.128L299.642 143.135ZM390.843 204.311C369.713 208.497 374.035 236.604 393.157 235.176C414.872 231.401 409.549 202.9 390.843 204.311ZM122.52 212.364C102.715 213.669 104.883 230.527 104.898 244.973L104.895 279.904C110.442 274.551 115.857 269.012 121.317 263.565C124.308 260.582 131.711 250.582 136.451 256.203C141.356 262.018 120.35 278.134 115.782 283.272C122.92 291.611 133.144 299.213 139.437 307.084C143.943 312.719 137.594 316.992 133.8 320.789L122.689 331.912C120.482 334.131 118.119 336.314 116.187 338.775L115.932 339.097C115.881 339.161 115.832 339.227 115.782 339.292L116.002 339.617C118.897 343.849 127.546 351.795 131.645 355.757C134.791 358.798 141.463 364.053 134.979 368.017C129.516 371.357 121.73 360.097 118.594 356.845C114.05 352.134 109.299 347.639 104.895 342.794L104.878 375.891C104.869 387.229 102.645 404.516 118.367 407.167C122.88 407.928 127.946 407.498 132.531 407.495L249.625 407.482L284.886 407.493C316.328 407.49 318.785 406.062 318.782 377.035L318.774 346.416L292.909 346.423C277.439 346.432 261.925 347.739 249.945 335.815C230.774 316.733 238.847 281.954 265.694 274.854C273.346 272.83 282.253 273.667 290.149 273.668L318.774 273.681L318.747 238.094C318.747 234.76 319.54 231.301 318.865 228.006C315.169 209.95 297.553 212.376 284.276 212.38L122.52 212.364ZM275.799 283.272C249.675 285.184 239.395 314.709 259.021 330.817C267.542 337.81 277.342 336.918 287.642 336.803L304.125 336.783L330.769 336.783L330.769 283.272L275.799 283.272ZM104.895 287.051L104.895 335.802C108.877 331.461 113.176 327.387 117.364 323.245C121.351 319.23 125.486 315.295 129.348 311.165L113.489 295.406C111.211 293.111 107.442 288.641 104.895 287.051Z"/>
	<path fill="white" transform="scale(2 2)" d="M282.11 325.213C261.046 327.632 255.693 298.262 277.04 293.311C298.081 290.729 302.469 320.572 282.11 325.213ZM279.846 303.074C270.486 304.473 271.31 315.35 279.846 315.398C287.561 313.911 287.546 303.685 279.846 303.074Z"/>
</svg>
